<?xml version="1.0" encoding="utf-8"?>
<!-- Generator: Adobe Illustrator 18.0.0, SVG Export Plug-In . SVG Version: 6.00 Build 0)  -->
<!DOCTYPE svg PUBLIC "-//W3C//DTD SVG 1.1//EN" "http://www.w3.org/Graphics/SVG/1.1/DTD/svg11.dtd">
<svg version="1.1" id="Layer_1" xmlns="http://www.w3.org/2000/svg" xmlns:xlink="http://www.w3.org/1999/xlink" x="0px" y="0px"
	 viewBox="0 0 32 32" enable-background="new 0 0 32 32" xml:space="preserve">
<g>
	<g>
		<path fill="#303F9F" d="M27.9,9.2c0,0,0,0.1,0,0.1c0,0.1,0,0.1,0,0.2l0,0.3c-0.1,0-0.2,0-0.4,0h-23c-0.1,0-0.1,0-0.2,0l0-0.3
			c0-0.9,0.6-1.6,1.3-1.6h12.8V7.1c0-0.8,0.6-1.4,1.4-1.4h6.7c0.8,0,1.4,0.6,1.4,1.4V9.2z"/>
	</g>
</g>
<g>
	<g>
		<path fill="#3F51B5" d="M29,11.2l-0.9,13.7c0,0.8-0.7,1.5-1.5,1.5H5.4c-0.8,0-1.5-0.7-1.5-1.5L3,11.2c0-0.8,0.5-1.4,1.3-1.5
			c0.1,0,0.1,0,0.2,0h23c0.1,0,0.2,0,0.4,0C28.5,9.9,29,10.5,29,11.2z"/>
	</g>
</g>
<g>
	<polygon fill="#FFFFFF" points="19.8,12.8 16,16.6 12.2,12.8 10.8,14.2 14.6,18 10.8,21.8 12.2,23.2 16,19.4 19.8,23.2 21.2,21.8
		17.4,18 21.2,14.2 	"/>
</g>
</svg>
