<?xml version="1.0" encoding="utf-8"?>
<!-- Generator: Adobe Illustrator 18.0.0, SVG Export Plug-In . SVG Version: 6.00 Build 0)  -->
<!DOCTYPE svg PUBLIC "-//W3C//DTD SVG 1.1//EN" "http://www.w3.org/Graphics/SVG/1.1/DTD/svg11.dtd">
<svg version="1.1" id="Layer_1" xmlns="http://www.w3.org/2000/svg" xmlns:xlink="http://www.w3.org/1999/xlink" x="0px" y="0px"
	 viewBox="0 0 32 32" enable-background="new 0 0 32 32" xml:space="preserve">
<g>
	<path fill="#673AB7" d="M29.8,23.9H15.2c-0.6,0-1-0.4-1-1v-7.1c0-0.6,0.4-1,1-1h14.6c0.6,0,1,0.4,1,1v7.1
		C30.8,23.5,30.3,23.9,29.8,23.9z"/>
</g>
<g>
	<path fill="#673AB7" d="M14.2,25c-0.6,0-1-0.4-1-1v-9.4c0-0.6,0.4-1,1-1H27V3c0-1.1-0.9-2-2-2H3.8c-1.1,0-2,0.9-2,2v26
		c0,1.1,0.9,2,2,2H25c1.1,0,2-0.9,2-2v-4H14.2z"/>
</g>
<g>
	<path fill="#FFFFFF" d="M15.5,22.1v-5h1v4.1h2.5v0.8H15.5z"/>
	<path fill="#FFFFFF" d="M19.6,19.6c0-0.5,0.1-0.9,0.2-1.3c0.1-0.3,0.3-0.5,0.5-0.7c0.2-0.2,0.4-0.4,0.6-0.5C21.2,17,21.6,17,22,17
		c0.7,0,1.3,0.2,1.8,0.7c0.4,0.5,0.7,1.1,0.7,1.9c0,0.8-0.2,1.4-0.7,1.9c-0.4,0.5-1,0.7-1.8,0.7c-0.7,0-1.3-0.2-1.8-0.7
		C19.8,21,19.6,20.4,19.6,19.6z M20.6,19.6c0,0.6,0.1,1,0.4,1.3c0.3,0.3,0.6,0.4,1,0.4s0.7-0.1,1-0.4c0.3-0.3,0.4-0.7,0.4-1.3
		c0-0.6-0.1-1-0.4-1.3c-0.3-0.3-0.6-0.4-1-0.4s-0.8,0.1-1,0.4C20.8,18.5,20.6,19,20.6,19.6z"/>
	<path fill="#FFFFFF" d="M27.6,20.2v-0.8h2.2v2c-0.2,0.2-0.5,0.4-0.9,0.5c-0.4,0.2-0.8,0.2-1.2,0.2c-0.5,0-1-0.1-1.4-0.3
		c-0.4-0.2-0.7-0.5-0.9-0.9c-0.2-0.4-0.3-0.9-0.3-1.3c0-0.5,0.1-1,0.3-1.4s0.5-0.7,1-0.9c0.3-0.2,0.7-0.2,1.2-0.2
		c0.6,0,1.1,0.1,1.5,0.4c0.3,0.3,0.6,0.6,0.7,1.1l-1,0.2c-0.1-0.2-0.2-0.4-0.4-0.6c-0.2-0.1-0.4-0.2-0.7-0.2c-0.4,0-0.8,0.1-1.1,0.4
		c-0.3,0.3-0.4,0.7-0.4,1.2c0,0.6,0.1,1,0.4,1.3c0.3,0.3,0.6,0.4,1,0.4c0.2,0,0.4,0,0.6-0.1c0.2-0.1,0.4-0.2,0.5-0.3v-0.6H27.6z"/>
</g>
</svg>
