<?xml version="1.0" encoding="utf-8"?>
<!-- Generator: Adobe Illustrator 18.0.0, SVG Export Plug-In . SVG Version: 6.00 Build 0)  -->
<!DOCTYPE svg PUBLIC "-//W3C//DTD SVG 1.1//EN" "http://www.w3.org/Graphics/SVG/1.1/DTD/svg11.dtd">
<svg version="1.1" id="Layer_1" xmlns="http://www.w3.org/2000/svg" xmlns:xlink="http://www.w3.org/1999/xlink" x="0px" y="0px"
	 viewBox="0 0 32 32" enable-background="new 0 0 32 32" xml:space="preserve">
<g>
	<g>
		<path fill="#0AD3E2" d="M26.3,1h-12L3.4,11.8v16.9c0,1.3,1.1,2.4,2.4,2.4h20.1h0.4c1.3,0,2.4-1.1,2.4-2.4v-0.3v-25
			C28.6,2.1,27.6,1,26.3,1z"/>
	</g>
	<g opacity="0.1">
		<polygon points="12.5,11.8 3.4,19.4 3.4,11.8 		"/>
	</g>
	<g>
		<path fill="#80DEEA" d="M11.9,11.8c1.3,0,2.4-1.1,2.4-2.4V1L3.4,11.8H11.9z"/>
	</g>
	<g>
		<g>
			<path fill="#FFFFFF" d="M14.2,13.1c0.1,0,0.1,0,0.2,0l10,2.2c0.4,0.1,0.7,0.4,0.8,0.7c0.1,0.4,0,0.8-0.3,1l-2.6,2.2l5,6.1
				c0.1,0.2,0.2,0.4,0.2,0.6v0.3c0,1.9-1.5,3.4-3.4,3.4h-0.4c-0.3,0-0.6-0.1-0.8-0.4L17.7,23l-2.6,2.2c-0.3,0.2-0.7,0.3-1.1,0.1
				c-0.3-0.2-0.6-0.5-0.6-0.9l-0.2-10.2c0-0.3,0.1-0.6,0.4-0.8C13.7,13.2,14,13.1,14.2,13.1z M21.9,16.9l-6.7-1.5l0.2,6.9l1.8-1.5
				c0.2-0.2,0.5-0.2,0.7-0.2c0.3,0,0.5,0.2,0.7,0.4l5.5,6.7c0.7,0,1.3-0.6,1.3-1.3L20,19.8c-0.4-0.4-0.3-1.1,0.1-1.4L21.9,16.9z"/>
		</g>
	</g>
</g>
</svg>
