<?xml version="1.0" encoding="utf-8"?>
<!-- Generator: Adobe Illustrator 18.0.0, SVG Export Plug-In . SVG Version: 6.00 Build 0)  -->
<!DOCTYPE svg PUBLIC "-//W3C//DTD SVG 1.1//EN" "http://www.w3.org/Graphics/SVG/1.1/DTD/svg11.dtd">
<svg version="1.1" id="Layer_1" xmlns="http://www.w3.org/2000/svg" xmlns:xlink="http://www.w3.org/1999/xlink" x="0px" y="0px"
	 viewBox="0 0 32 32" enable-background="new 0 0 32 32" xml:space="preserve">
<g>
	<g>
		<g>
			<polygon fill="#9C27B0" points="32,16 21.4,26.6 10.7,16 21.4,5.4 			"/>
		</g>
	</g>
	<g>
		<g>
			<circle fill="#FFFFFF" cx="21.4" cy="12" r="1.8"/>
		</g>
	</g>
	<g>
		<g>
			<circle fill="#FFFFFF" cx="21.4" cy="21" r="1.8"/>
		</g>
	</g>
	<g>
		<g>
			<circle fill="#FFFFFF" cx="26.3" cy="16.7" r="1.8"/>
		</g>
	</g>
	<g>
		<g>

				<rect x="16.6" y="11.7" transform="matrix(0.7178 0.6962 -0.6962 0.7178 14.788 -11.7456)" fill="#FFFFFF" width="10.6" height="1.4"/>
		</g>
	</g>
	<g>
		<g>
			<rect x="20.6" y="11.9" fill="#FFFFFF" width="1.4" height="8.6"/>
		</g>
	</g>
</g>
<g>
	<g>
		<path fill="#9C27B0" d="M6.6,25.7c-0.3,0-0.5-0.1-0.7-0.3l-5.1-5L2.2,19l3.4,3.3V7.3h2v17.4c0,0.4-0.2,0.8-0.6,0.9
			C6.8,25.7,6.7,25.7,6.6,25.7z"/>
	</g>
	<g>
		<path fill="#9C27B0" d="M6.6,25.7c-0.1,0-0.3,0-0.4-0.1c-0.4-0.2-0.6-0.5-0.6-0.9V7.3h2v15.1L11,19l1.4,1.4l-5.1,5
			C7.1,25.6,6.8,25.7,6.6,25.7z"/>
	</g>
</g>
</svg>
