<?xml version="1.0" encoding="utf-8"?>
<!-- Generator: Adobe Illustrator 18.0.0, SVG Export Plug-In . SVG Version: 6.00 Build 0)  -->
<!DOCTYPE svg PUBLIC "-//W3C//DTD SVG 1.1//EN" "http://www.w3.org/Graphics/SVG/1.1/DTD/svg11.dtd">
<svg version="1.1" id="Layer_1" xmlns="http://www.w3.org/2000/svg" xmlns:xlink="http://www.w3.org/1999/xlink" x="0px" y="0px"
	 viewBox="0 0 32 32" enable-background="new 0 0 32 32" xml:space="preserve">
<g>
	<g>
		<g>
			<path fill="#303F9F" d="M27.9,9.2c0,0,0,0.1,0,0.1c0,0.1,0,0.1,0,0.2l0,0.3c-0.1,0-0.2,0-0.4,0h-23c-0.1,0-0.1,0-0.2,0l0-0.3
				c0-0.9,0.6-1.6,1.3-1.6h12.8V7.1c0-0.8,0.6-1.4,1.4-1.4h6.7c0.8,0,1.4,0.6,1.4,1.4V9.2z"/>
		</g>
	</g>
	<g>
		<g>
			<path fill="#3F51B5" d="M29,11.2l-0.9,13.7c0,0.8-0.7,1.5-1.5,1.5H5.4c-0.8,0-1.5-0.7-1.5-1.5L3,11.2c0-0.8,0.5-1.4,1.3-1.5
				c0.1,0,0.1,0,0.2,0h23c0.1,0,0.2,0,0.4,0C28.5,9.9,29,10.5,29,11.2z"/>
		</g>
	</g>
</g>
<path fill="#FFFFFF" d="M11.9,11.1h-1.2c-0.4,0-0.7-0.3-0.7-0.7v0c0-0.4,0.3-0.7,0.7-0.7h1.2c0.4,0,0.7,0.3,0.7,0.7v0
	C12.6,10.8,12.3,11.1,11.9,11.1z"/>
<path fill="#FFFFFF" d="M10.2,12.6H9c-0.4,0-0.7-0.3-0.7-0.7v0c0-0.4,0.3-0.7,0.7-0.7h1.2c0.4,0,0.7,0.3,0.7,0.7v0
	C10.9,12.3,10.6,12.6,10.2,12.6z"/>
<path fill="#FFFFFF" d="M11.8,14.3h-1.2c-0.4,0-0.7-0.3-0.7-0.7v0c0-0.4,0.3-0.7,0.7-0.7h1.2c0.4,0,0.7,0.3,0.7,0.7v0
	C12.5,14,12.1,14.3,11.8,14.3z"/>
<path fill="#FFFFFF" d="M10.1,15.9H8.9c-0.4,0-0.7-0.3-0.7-0.7v0c0-0.4,0.3-0.7,0.7-0.7h1.2c0.4,0,0.7,0.3,0.7,0.7v0
	C10.8,15.6,10.5,15.9,10.1,15.9z"/>
<path fill="#FFFFFF" d="M11.9,17.4h-1.2c-0.4,0-0.7-0.3-0.7-0.7v0c0-0.4,0.3-0.7,0.7-0.7h1.2c0.4,0,0.7,0.3,0.7,0.7v0
	C12.6,17.1,12.3,17.4,11.9,17.4z"/>
<path fill="#FFFFFF" d="M10.3,19H9.1c-0.4,0-0.7-0.3-0.7-0.7v0c0-0.4,0.3-0.7,0.7-0.7h1.2c0.4,0,0.7,0.3,0.7,0.7v0
	C11,18.6,10.6,19,10.3,19z"/>
<path fill="#FFFFFF" d="M11.3,24.8h-1c-0.6,0-1-0.4-1-1v-3.1c0-0.6,0.4-1,1-1h1c0.6,0,1,0.4,1,1v3.1C12.3,24.3,11.8,24.8,11.3,24.8z
	"/>
<rect x="10.1" y="23.3" fill="#3F51B5" width="1.3" height="0.8"/>
</svg>
