<?xml version="1.0" encoding="utf-8"?>
<!-- Generator: Adobe Illustrator 18.0.0, SVG Export Plug-In . SVG Version: 6.00 Build 0)  -->
<!DOCTYPE svg PUBLIC "-//W3C//DTD SVG 1.1//EN" "http://www.w3.org/Graphics/SVG/1.1/DTD/svg11.dtd">
<svg version="1.1" id="Layer_1" xmlns="http://www.w3.org/2000/svg" xmlns:xlink="http://www.w3.org/1999/xlink" x="0px" y="0px"
	 viewBox="0 0 32 32" enable-background="new 0 0 32 32" xml:space="preserve">
<g>
	<g>
		<path fill="#795548" d="M3.4,15.6c0-0.9,0-1.7-0.1-2.3h1.8l0.1,1h0c0.5-0.7,1.3-1.1,2.3-1.1c1.5,0,2.8,1.3,2.8,3.5
			c0,2.5-1.6,3.7-3.1,3.7c-0.8,0-1.5-0.3-1.8-0.8h0v3.4H3.4V15.6z M5.5,17.2c0,0.2,0,0.3,0,0.4c0.1,0.6,0.6,1,1.2,1
			c0.9,0,1.5-0.8,1.5-1.9c0-1.1-0.5-1.9-1.4-1.9c-0.6,0-1.1,0.4-1.3,1.1c0,0.1,0,0.3,0,0.4V17.2z"/>
	</g>
	<g>
		<path fill="#795548" d="M13.1,13.3l0.5,2.8c0.1,0.7,0.3,1.5,0.4,2.3h0c0.1-0.8,0.3-1.6,0.5-2.2l0.7-2.8h1.7l0.7,2.7
			c0.2,0.8,0.4,1.5,0.5,2.3h0c0.1-0.8,0.2-1.6,0.4-2.3l0.6-2.7h2.1l-2.1,6.8h-2l-0.6-2.4c-0.2-0.7-0.3-1.3-0.4-2.1h0
			c-0.1,0.9-0.3,1.5-0.4,2.1l-0.7,2.4h-2l-2-6.8H13.1z"/>
	</g>
	<g>
		<path fill="#795548" d="M28.7,10.2v7.9c0,0.8,0,1.6,0.1,2h-1.9l-0.1-1h0c-0.4,0.8-1.3,1.2-2.1,1.2c-1.6,0-2.9-1.4-2.9-3.5
			c0-2.3,1.4-3.6,3.1-3.6c0.8,0,1.5,0.3,1.8,0.8h0v-3.7H28.7z M26.5,16.2c0-0.1,0-0.3,0-0.4c-0.1-0.6-0.6-1.1-1.2-1.1
			c-1,0-1.5,0.9-1.5,1.9c0,1.2,0.6,1.9,1.5,1.9c0.6,0,1.1-0.4,1.2-1c0-0.2,0.1-0.3,0.1-0.5V16.2z"/>
	</g>
</g>
</svg>
