<?xml version="1.0" encoding="utf-8"?>
<!-- Generator: Adobe Illustrator 18.0.0, SVG Export Plug-In . SVG Version: 6.00 Build 0)  -->
<!DOCTYPE svg PUBLIC "-//W3C//DTD SVG 1.1//EN" "http://www.w3.org/Graphics/SVG/1.1/DTD/svg11.dtd">
<svg version="1.1" id="Layer_1" xmlns="http://www.w3.org/2000/svg" xmlns:xlink="http://www.w3.org/1999/xlink" x="0px" y="0px"
	 viewBox="0 0 32 32" enable-background="new 0 0 32 32" xml:space="preserve">
<g>
	<g>
		<path fill="#303F9F" d="M17.1,22.6C17.1,22.6,17.1,22.6,17.1,22.6c0,0.1,0,0.1,0,0.1l0,0.1c0,0-0.1,0-0.2,0H6.8c0,0-0.1,0-0.1,0
			l0-0.1C6.7,22.3,7,22,7.3,22h5.7v-0.3c0-0.3,0.3-0.6,0.6-0.6h3c0.3,0,0.6,0.3,0.6,0.6V22.6z"/>
	</g>
</g>
<g>
	<g>
		<path fill="#3F51B5" d="M17.6,23.4l-0.4,6c0,0.4-0.3,0.7-0.7,0.7H7.2c-0.4,0-0.7-0.3-0.7-0.7l-0.4-6c0-0.3,0.2-0.6,0.6-0.6
			c0,0,0.1,0,0.1,0H17c0.1,0,0.1,0,0.2,0C17.4,22.9,17.6,23.1,17.6,23.4z"/>
	</g>
</g>
<g>
	<g>
		<path fill="#757575" d="M18.5,26.9v-2.3H21v-17h-2.6V5.4H24v21.5H18.5z"/>
	</g>
</g>
</svg>
