<?xml version="1.0" encoding="utf-8"?>
<!-- Generator: Adobe Illustrator 18.0.0, SVG Export Plug-In . SVG Version: 6.00 Build 0)  -->
<!DOCTYPE svg PUBLIC "-//W3C//DTD SVG 1.1//EN" "http://www.w3.org/Graphics/SVG/1.1/DTD/svg11.dtd">
<svg version="1.1" id="Layer_1" xmlns="http://www.w3.org/2000/svg" xmlns:xlink="http://www.w3.org/1999/xlink" x="0px" y="0px"
	 viewBox="0 0 32 32" enable-background="new 0 0 32 32" xml:space="preserve">
<g>
	<g>
		<path fill="#303F9F" d="M25.4,22.6C25.4,22.6,25.4,22.6,25.4,22.6c0,0.1,0,0.1,0,0.1l0,0.1c0,0-0.1,0-0.2,0H15c0,0-0.1,0-0.1,0
			l0-0.1c0-0.4,0.2-0.7,0.6-0.7h5.7v-0.3c0-0.3,0.3-0.6,0.6-0.6h3c0.3,0,0.6,0.3,0.6,0.6V22.6z"/>
	</g>
</g>
<g>
	<g>
		<path fill="#3F51B5" d="M25.8,23.4l-0.4,6c0,0.4-0.3,0.7-0.7,0.7h-9.4c-0.4,0-0.7-0.3-0.7-0.7l-0.4-6c0-0.3,0.2-0.6,0.6-0.6
			c0,0,0.1,0,0.1,0h10.2c0.1,0,0.1,0,0.2,0C25.6,22.9,25.8,23.1,25.8,23.4z"/>
	</g>
</g>
<g>
	<g>
		<path fill="#757575" d="M8,26.9V5.4h5.5v2.3H11v17h2.6v2.3H8z"/>
	</g>
</g>
</svg>
