<?xml version="1.0" encoding="utf-8"?>
<!DOCTYPE svg PUBLIC "-//W3C//DTD SVG 1.1//EN" "http://www.w3.org/Graphics/SVG/1.1/DTD/svg11.dtd">
<svg version="1.1" id="Layer_1" xmlns="http://www.w3.org/2000/svg" xmlns:xlink="http://www.w3.org/1999/xlink" x="0px" y="0px"
	 viewBox="0 0 32 32" enable-background="new 0 0 32 32" xml:space="preserve">
<g>
	<g>
		<path fill="#009688" d="M23,30.2h-0.9c-0.6,0-1-0.5-1-1v-0.7c-0.4-0.1-0.8-0.3-1.2-0.5l-0.6,0.5c-0.4,0.4-1.1,0.4-1.5,0l-0.6-0.6
			c-0.2-0.2-0.3-0.5-0.3-0.7c0-0.3,0.1-0.5,0.3-0.7l0.6-0.5c-0.2-0.3-0.3-0.6-0.4-0.9h-0.6c-0.6,0-1-0.5-1-1v-0.8c0-0.6,0.5-1,1-1
			h0.6c0.1-0.3,0.2-0.6,0.3-0.8l-0.5-0.5c-0.2-0.2-0.3-0.4-0.3-0.7c0-0.3,0.1-0.5,0.3-0.7l0.6-0.6c0.4-0.4,1.1-0.4,1.5-0.1l0.5,0.5
			c0.4-0.2,0.8-0.4,1.3-0.5v-0.8c0-0.6,0.5-1,1-1H23c0.6,0,1,0.5,1,1v0.8c0.3,0.1,0.7,0.2,1,0.4l0.6-0.6c0.4-0.4,1.1-0.4,1.5,0
			l0.6,0.6c0.2,0.2,0.3,0.5,0.3,0.7c0,0.3-0.1,0.5-0.3,0.7L27.1,21c0.2,0.3,0.3,0.6,0.4,0.9h0.7c0.6,0,1,0.5,1,1v0.8
			c0,0.6-0.5,1-1,1h-0.6c-0.1,0.4-0.3,0.8-0.5,1.2l0.5,0.4c0.2,0.2,0.3,0.4,0.3,0.7c0,0.3-0.1,0.5-0.3,0.7l-0.6,0.6
			c-0.4,0.4-1.1,0.4-1.5,0.1L25.1,28c-0.4,0.2-0.7,0.3-1.1,0.5v0.7C24,29.8,23.5,30.2,23,30.2z M22.1,28.2v1c0,0,0,0,0,0H23
			c0,0,0,0,0,0v-1.1l0-0.4l0.4-0.1c0.5-0.1,1-0.3,1.5-0.6l0.3-0.2l1.1,1l0.1,0l0.6-0.6l-1.1-1l0.2-0.4c0.3-0.5,0.5-1,0.6-1.6
			l0.1-0.4h1.4c0,0,0,0,0,0v-0.8c0,0,0,0,0,0h-1.4l-0.1-0.4c-0.1-0.5-0.3-0.9-0.6-1.3l-0.3-0.4l0.4-0.3l0.8-0.7l-0.6-0.6l-0.1,0
			l-0.8,0.8l-0.3,0.4L24.8,20c-0.4-0.3-0.9-0.5-1.4-0.6L23,19.4l0.1-0.5v-1c0,0,0,0,0,0h-0.9c0,0,0,0,0,0v1c0,0,0,0,0,0.1l0,0.4
			l-0.4,0.1c-0.6,0.1-1.1,0.4-1.6,0.7l-0.3,0.2l-1.1-1l-0.4-0.3l0.4,0.3L17.9,20l1.1,1.1l-0.2,0.4c-0.2,0.4-0.4,0.8-0.5,1.3
			l-0.1,0.4h-1.4c0,0,0,0,0,0V24c0,0,0,0,0,0h1.4l0.1,0.4c0.1,0.5,0.3,0.9,0.5,1.3l0.2,0.4l-0.4,0.3l-0.8,0.7l0.6,0.6l0.4,0.4
			l-0.3-0.4l0.8-0.8l0.3-0.3l0.4,0.2c0.5,0.3,1,0.6,1.6,0.7l0.4,0.1L22.1,28.2z M22.5,26.5c-1.7,0-3.1-1.3-3.1-3s1.4-3,3.1-3
			s3.1,1.3,3.1,3S24.2,26.5,22.5,26.5z M22.5,21.5c-1.1,0-2.1,0.9-2.1,2s0.9,2,2.1,2c1.1,0,2.1-0.9,2.1-2S23.7,21.5,22.5,21.5z"/>
	</g>
</g>
<g>
	<g>
		<path fill="#757575" d="M9.3,26.9V5.4h5.5v2.3h-2.6v17h2.6v2.3H9.3z"/>
	</g>
</g>
</svg>
