<?xml version="1.0" encoding="utf-8"?>
<!-- Generator: Adobe Illustrator 18.0.0, SVG Export Plug-In . SVG Version: 6.00 Build 0)  -->
<!DOCTYPE svg PUBLIC "-//W3C//DTD SVG 1.1//EN" "http://www.w3.org/Graphics/SVG/1.1/DTD/svg11.dtd">
<svg version="1.1" id="Layer_1" xmlns="http://www.w3.org/2000/svg" xmlns:xlink="http://www.w3.org/1999/xlink" x="0px" y="0px"
	 viewBox="0 0 32 32" enable-background="new 0 0 32 32" xml:space="preserve">
<path fill="#2196F3" d="M26.3,1h-12L3.4,11.8v16.9c0,1.3,1.1,2.4,2.4,2.4h20.5c0.2,0,0.4,0,0.5-0.1c0.7-0.2,1.3-0.6,1.6-1.2
	c0.2-0.3,0.3-0.7,0.3-1.1V3.4C28.6,2.1,27.6,1,26.3,1z"/>
<g>
	<g>
		<path fill="#90CAF9" d="M11.9,11.8c1.3,0,2.4-1.1,2.4-2.4V1L3.4,11.8H11.9z"/>
	</g>
</g>
<g opacity="0.1">
	<g>
		<polygon points="12.5,11.8 3.4,19.4 3.4,11.8 		"/>
	</g>
</g>
<g>
	<path fill="#FFFFFF" d="M21.2,25.2c0-0.2,0-0.4,0-0.5c0-0.7,0.1-1.3,0.3-1.8c0.1-0.4,0.4-0.8,0.7-1.2c0.2-0.3,0.7-0.7,1.3-1.3
		c0.6-0.6,1-1,1.2-1.3S25,18.4,25,18c0-0.7-0.3-1.3-0.8-1.8c-0.5-0.5-1.2-0.8-2-0.8c-0.8,0-1.4,0.2-1.9,0.7c-0.5,0.5-0.9,1.2-1,2.3
		l-1.9-0.2c0.2-1.4,0.7-2.4,1.5-3.1c0.8-0.7,1.9-1.1,3.3-1.1c1.4,0,2.6,0.4,3.4,1.2s1.3,1.7,1.3,2.8c0,0.6-0.2,1.2-0.5,1.8
		s-0.9,1.2-1.8,2c-0.6,0.5-1,0.9-1.2,1.2c-0.2,0.2-0.3,0.5-0.4,0.9c-0.1,0.3-0.1,0.8-0.2,1.6H21.2z M21.1,28.8v-2.1h2.1v2.1H21.1z"
		/>
</g>
</svg>
