<?xml version="1.0" encoding="utf-8"?>
<!-- Generator: Adobe Illustrator 18.0.0, SVG Export Plug-In . SVG Version: 6.00 Build 0)  -->
<!DOCTYPE svg PUBLIC "-//W3C//DTD SVG 1.1//EN" "http://www.w3.org/Graphics/SVG/1.1/DTD/svg11.dtd">
<svg version="1.1" id="Layer_1" xmlns="http://www.w3.org/2000/svg" xmlns:xlink="http://www.w3.org/1999/xlink" x="0px" y="0px"
	 viewBox="0 0 32 32" enable-background="new 0 0 32 32" xml:space="preserve">
<g>
	<path fill="#1CC0F9" d="M16,30c-0.4,0-0.7,0-1.1,0l0.2-2c1.6,0.1,3.2-0.1,4.7-0.6l0.6,1.9C18.9,29.8,17.5,30,16,30z M11.7,29.4
		c-1.8-0.6-3.4-1.5-4.8-2.7l1.3-1.5c1.2,1,2.6,1.8,4.1,2.3L11.7,29.4z M23.3,28l-1.1-1.7c1.3-0.8,2.5-1.9,3.4-3.2l1.6,1.2
		C26.3,25.7,24.9,27,23.3,28z M4.7,24.3c-1.1-1.5-1.9-3.2-2.3-5l1.9-0.5c0.4,1.5,1,3,2,4.3L4.7,24.3z M28.9,21.4l-1.8-0.8
		c0.6-1.5,0.9-3,0.9-4.6l2-0.1V16C30,17.9,29.6,19.7,28.9,21.4z M2,16L2,16c0-1.9,0.4-3.7,1-5.4l1.9,0.8C4.3,12.9,4,14.4,4,16L2,16z
		 M27.7,13.1c-0.4-1.5-1-3-2-4.3l1.6-1.2c1.1,1.5,1.9,3.2,2.3,5L27.7,13.1z M6.3,8.9L4.6,7.8C5.7,6.3,7.1,5,8.6,4l1.1,1.7
		C8.3,6.6,7.2,7.7,6.3,8.9z M23.8,6.8c-1.2-1-2.6-1.8-4.1-2.3l0.6-1.9c1.8,0.6,3.4,1.5,4.8,2.7L23.8,6.8z M12.3,4.5l-0.6-1.9
		c1.7-0.6,3.6-0.8,5.4-0.7l-0.2,2C15.4,3.9,13.7,4.1,12.3,4.5z"/>
</g>
<g>
	<path fill="#1CC0F9" d="M14.5,22.1c-0.2,0-0.4-0.1-0.6-0.2l-5.9-4.7l1.3-1.6l5.2,4.1l8.3-9.4l1.5,1.3l-9,10.1
		C15,21.9,14.7,22.1,14.5,22.1z"/>
</g>
</svg>
